<svg width="26" height="26" viewBox="0 0 26 26" fill="none" xmlns="http://www.w3.org/2000/svg">
<path d="M18.3333 5.66667H14.85C14.5 4.7 13.5833 4 12.5 4C11.4167 4 10.5 4.7 10.15 5.66667H6.66667C6.22464 5.66667 5.80072 5.84226 5.48816 6.15482C5.17559 6.46738 5 6.89131 5 7.33333V19C5 19.442 5.17559 19.8659 5.48816 20.1785C5.80072 20.4911 6.22464 20.6667 6.66667 20.6667H18.3333C18.7754 20.6667 19.1993 20.4911 19.5118 20.1785C19.8244 19.8659 20 19.442 20 19V7.33333C20 6.89131 19.8244 6.46738 19.5118 6.15482C19.1993 5.84226 18.7754 5.66667 18.3333 5.66667Z" fill="#1000CB"/>
<path d="M12.5 7.4C12.279 7.4 12.067 7.31045 11.9107 7.15104C11.7545 6.99163 11.6667 6.77543 11.6667 6.55C11.6667 6.32457 11.7545 6.10837 11.9107 5.94896C12.067 5.78955 12.279 5.7 12.5 5.7C12.721 5.7 12.933 5.78955 13.0893 5.94896C13.2455 6.10837 13.3333 6.32457 13.3333 6.55C13.3333 6.77543 13.2455 6.99163 13.0893 7.15104C12.933 7.31045 12.721 7.4 12.5 7.4ZM13.3333 15.05H11.6667V9.95H13.3333V15.05ZM13.3333 18.45H11.6667V16.75H13.3333V18.45Z" fill="#FAC371"/>
</svg>
