<svg width="26" height="26" viewBox="0 0 26 26" fill="none" xmlns="http://www.w3.org/2000/svg">
<circle cx="3.1875" cy="3.1875" r="3.1875" transform="matrix(-1 0 0 1 14.8369 6.29297)" fill="#1000CB" stroke="#1000CB" stroke-width="1.19531"/>
<path d="M6.07129 17.3972C6.07129 16.7116 6.50228 16.1 7.14794 15.8694C10.0589 14.8298 13.2399 14.8298 16.1509 15.8694C16.7965 16.1 17.2275 16.7116 17.2275 17.3972V18.4455C17.2275 19.3917 16.3895 20.1186 15.4527 19.9847L14.6922 19.8761C12.6739 19.5878 10.6249 19.5878 8.60665 19.8761L7.8461 19.9847C6.90937 20.1186 6.07129 19.3917 6.07129 18.4455V17.3972Z" fill="#1000CB" stroke="#1000CB" stroke-width="1.19531"/>
<path d="M17.2275 12.668H20.415" stroke="#FAC371" stroke-width="1.19531" stroke-linecap="round" stroke-linejoin="round"/>
<path d="M18.8218 11.0742L18.8218 14.2617" stroke="#FAC371" stroke-width="1.19531" stroke-linecap="round" stroke-linejoin="round"/>
</svg>
