<svg width="26" height="26" viewBox="0 0 26 26" fill="none" xmlns="http://www.w3.org/2000/svg">
<path d="M15.75 12.2857H21V13.7143H15.75V12.2857ZM16.5 15.1429H21V16.5714H16.5V15.1429ZM15 9.42857H21V10.8571H15V9.42857ZM7.5 18H15V17.2857C15 15.3164 13.3177 13.7143 11.25 13.7143H9.75C7.68225 13.7143 6 15.3164 6 17.2857V18H7.5ZM10.5 13C11.9962 13 13.125 11.925 13.125 10.5C13.125 9.075 11.9962 8 10.5 8C9.00375 8 7.875 9.075 7.875 10.5C7.875 11.925 9.00375 13 10.5 13Z" fill="#FAC371"/>
<path d="M7.49287 17.9571H14.9572V17.2107C14.9572 15.1528 13.283 13.4785 11.225 13.4785H9.73218C7.67426 13.4785 6 15.1528 6 17.2107V17.9571H7.49287Z" fill="#1000CB"/>
</svg>
