<svg width="26" height="26" viewBox="0 0 26 26" fill="none" xmlns="http://www.w3.org/2000/svg">
<path d="M7.90436 10.8087H6.63479V7H7.90436V10.8087ZM6.63479 19.6957H7.90436V15.887H6.63479V19.6957ZM7.26957 12.0783C6.57131 12.0783 6 12.6496 6 13.3479C6 14.0525 6.57131 14.6174 7.26957 14.6174C7.97419 14.6174 8.53915 14.0525 8.53915 13.3479C8.53915 12.6496 7.97419 12.0783 7.26957 12.0783ZM20.6001 9.53915V17.1566C20.6001 17.8612 20.0351 18.4262 19.3305 18.4262H11.7131C11.0148 18.4262 10.4435 17.8612 10.4435 17.1566V14.6174L9.17393 13.3479L10.4435 12.0783V9.53915C10.4435 8.83453 11.0148 8.26957 11.7131 8.26957H19.3305C20.0351 8.26957 20.6001 8.83453 20.6001 9.53915ZM17.9023 12.2878L17.1659 11.3927L14.887 13.6653L13.8777 12.6623L13.1414 13.3987L14.887 15.303L17.9023 12.2878Z" fill="#1000CB"/>
<path d="M7.90436 10.8087H6.63479V7H7.90436V10.8087ZM6.63479 19.6957H7.90436V15.887H6.63479V19.6957ZM7.26957 12.0783C6.57131 12.0783 6 12.6496 6 13.3479C6 14.0525 6.57131 14.6174 7.26957 14.6174C7.97419 14.6174 8.53915 14.0525 8.53915 13.3479C8.53915 12.6496 7.97419 12.0783 7.26957 12.0783ZM17.9023 12.2878L17.1659 11.3927L14.887 13.6653L13.8777 12.6623L13.1414 13.3987L14.887 15.303L17.9023 12.2878Z" fill="#FAC371"/>
</svg>
