<svg width="26" height="26" viewBox="0 0 26 26" fill="none" xmlns="http://www.w3.org/2000/svg">
<path d="M17.1276 8.39095H14.2205C13.9284 7.5842 13.1634 7 12.2593 7C11.3552 7 10.5901 7.5842 10.298 8.39095H7.39095C7.02205 8.39095 6.66825 8.5375 6.4074 8.79835C6.14655 9.0592 6 9.413 6 9.7819V19.5186C6 19.8875 6.14655 20.2413 6.4074 20.5021C6.66825 20.763 7.02205 20.9095 7.39095 20.9095H17.1276C17.4965 20.9095 17.8503 20.763 18.1112 20.5021C18.372 20.2413 18.5186 19.8875 18.5186 19.5186V9.7819C18.5186 9.413 18.372 9.0592 18.1112 8.79835C17.8503 8.5375 17.4965 8.39095 17.1276 8.39095ZM12.2593 8.39095C12.4437 8.39095 12.6206 8.46422 12.7511 8.59465C12.8815 8.72508 12.9548 8.90197 12.9548 9.08643C12.9548 9.27088 12.8815 9.44777 12.7511 9.5782C12.6206 9.70863 12.4437 9.7819 12.2593 9.7819C12.0748 9.7819 11.8979 9.70863 11.7675 9.5782C11.6371 9.44777 11.5638 9.27088 11.5638 9.08643C11.5638 8.90197 11.6371 8.72508 11.7675 8.59465C11.8979 8.46422 12.0748 8.39095 12.2593 8.39095ZM14.3457 19.5186L11.5638 16.7367H13.6502V11.8683H15.0412V16.7367H17.1276L14.3457 19.5186ZM10.8683 17.4321H9.47738V12.5638H7.39095L10.1729 9.7819L12.9548 12.5638H10.8683V17.4321Z" fill="#1000CB"/>
<path d="M12.2593 8.39095C12.4437 8.39095 12.6206 8.46422 12.7511 8.59465C12.8815 8.72508 12.9548 8.90197 12.9548 9.08643C12.9548 9.27088 12.8815 9.44777 12.7511 9.5782C12.6206 9.70863 12.4437 9.7819 12.2593 9.7819C12.0748 9.7819 11.8979 9.70863 11.7675 9.5782C11.6371 9.44777 11.5638 9.27088 11.5638 9.08643C11.5638 8.90197 11.6371 8.72508 11.7675 8.59465C11.8979 8.46422 12.0748 8.39095 12.2593 8.39095ZM14.3457 19.5186L11.5638 16.7367H13.6502V11.8683H15.0412V16.7367H17.1276L14.3457 19.5186ZM10.8683 17.4321H9.47738V12.5638H7.39095L10.1729 9.7819L12.9548 12.5638H10.8683V17.4321Z" fill="#FAC371"/>
</svg>
