<svg width="26" height="26" viewBox="0 0 26 26" fill="none" xmlns="http://www.w3.org/2000/svg">
<path fill-rule="evenodd" clip-rule="evenodd" d="M11.1608 7.41612C11.1608 7.1863 10.9745 7 10.7447 7C10.5148 7 10.3285 7.1863 10.3285 7.41612V7.62897C9.76114 7.69276 9.29191 7.81411 8.87253 8.05624C8.30321 8.38494 7.83044 8.85771 7.50174 9.42703C7.23609 9.88716 7.11581 10.4073 7.05745 11.0513C7 11.6852 7 12.4785 7 13.4979L7 13.5189L7 13.5398C7 14.5592 7 15.3525 7.05745 15.9864C7.11581 16.6304 7.23609 17.1505 7.50174 17.6107C7.83044 18.18 8.30321 18.6528 8.87253 18.9815C9.33266 19.2471 9.8528 19.3674 10.4968 19.4258C11.1307 19.4832 11.924 19.4832 12.9434 19.4832H12.9644H12.9853C14.0047 19.4832 14.798 19.4832 15.4319 19.4258C16.0759 19.3674 16.5961 19.2471 17.0562 18.9815C17.6255 18.6528 18.0983 18.18 18.427 17.6107C18.6926 17.1505 18.8129 16.6304 18.8713 15.9864C18.9287 15.3525 18.9287 14.5592 18.9287 13.5398V13.5189V13.4979C18.9287 12.4785 18.9287 11.6852 18.8713 11.0513C18.8129 10.4073 18.6926 9.88716 18.427 9.42703C18.0983 8.85771 17.6255 8.38494 17.0562 8.05624C16.6366 7.81402 16.1672 7.69266 15.5995 7.62889V7.41612C15.5995 7.1863 15.4132 7 15.1834 7C14.9536 7 14.7673 7.1863 14.7673 7.41612V7.57238C14.2633 7.5545 13.6762 7.5545 12.9854 7.5545H12.9853L12.9644 7.5545L12.9434 7.5545H12.9434C12.2522 7.5545 11.6649 7.5545 11.1608 7.57241V7.41612Z" fill="#1000CB"/>
<path d="M15.7377 11.2988H10.1895" stroke="#FAC371" stroke-width="0.832236" stroke-linecap="round" stroke-linejoin="round"/>
<circle cx="10.7443" cy="14.0724" r="0.554824" fill="#FAC371"/>
<circle cx="10.7443" cy="16.2931" r="0.554824" fill="#FAC371"/>
<circle cx="12.9635" cy="16.2931" r="0.554824" fill="#FAC371"/>
<circle cx="15.1832" cy="16.2931" r="0.554824" fill="#FAC371"/>
<circle cx="12.9635" cy="14.0724" r="0.554824" fill="#FAC371"/>
<circle cx="15.1832" cy="14.0724" r="0.554824" fill="#FAC371"/>
</svg>
