<svg width="26" height="26" viewBox="0 0 26 26" fill="none" xmlns="http://www.w3.org/2000/svg">
<path fill-rule="evenodd" clip-rule="evenodd" d="M13.8878 5.05896L13.8276 5.04917C13.5563 5.00475 13.2541 4.95529 12.9401 5.07354C12.6825 5.1705 12.4325 5.38365 12.296 5.62263C12.1993 5.79198 12.1623 5.96238 12.1461 6.12533C12.1317 6.27032 12.1317 6.43998 12.1317 6.61734V6.63811V10.3466V10.3683C12.1317 10.7493 12.1317 11.0672 12.1529 11.327C12.1751 11.5979 12.223 11.8523 12.3455 12.0928C12.5336 12.4618 12.8336 12.7618 13.2026 12.9499C13.4431 13.0724 13.6975 13.1203 13.9684 13.1425C14.2281 13.1636 14.5461 13.1636 14.927 13.1636H14.9488H18.6573H18.6781C18.8554 13.1637 19.0251 13.1637 19.1701 13.1493C19.333 13.1331 19.5034 13.0961 19.6728 12.9994C19.9118 12.8629 20.1249 12.6129 20.2219 12.3553C20.3401 12.0412 20.2907 11.7391 20.2463 11.4678L20.2365 11.4076C19.7149 8.15104 17.1444 5.58052 13.8878 5.05896ZM11.062 5.82374C11.062 5.65345 10.9809 5.49333 10.8436 5.39256C10.7063 5.29179 10.5293 5.26241 10.3668 5.31343C7.25688 6.29021 5 9.19534 5 12.629C5 16.8632 8.43247 20.2956 12.6666 20.2956C16.1003 20.2956 19.0054 18.0388 19.9822 14.9288C20.0332 14.7664 20.0038 14.5893 19.9031 14.452C19.8023 14.3147 19.6422 14.2336 19.4719 14.2336H15.662C14.7544 14.2336 14.106 14.2332 13.5977 14.1917C13.0956 14.1507 12.7775 14.0722 12.5222 13.9421C12.019 13.6858 11.6099 13.2766 11.3535 12.7734C11.2234 12.5181 11.145 12.2 11.1039 11.6979C11.0624 11.1896 11.062 10.5412 11.062 9.63366V5.82374Z" fill="#FAC371"/>
<path fill-rule="evenodd" clip-rule="evenodd" d="M11.062 5.82337C11.062 5.65308 10.9809 5.49297 10.8436 5.3922C10.7063 5.29142 10.5293 5.26204 10.3668 5.31307C7.25688 6.28985 5 9.19498 5 12.6286C5 16.8628 8.43247 20.2952 12.6666 20.2952C16.1003 20.2952 19.0054 18.0384 19.9822 14.9285C20.0332 14.766 20.0038 14.5889 19.9031 14.4516C19.8023 14.3143 19.6422 14.2333 19.4719 14.2333H15.662C14.7544 14.2333 14.106 14.2328 13.5977 14.1913C13.0956 14.1503 12.7775 14.0719 12.5222 13.9418C12.019 13.6854 11.6099 13.2762 11.3535 12.773C11.2234 12.5177 11.145 12.1996 11.1039 11.6976C11.0624 11.1893 11.062 10.5408 11.062 9.6333V5.82337Z" fill="#1000CB"/>
</svg>
