<svg width="26" height="26" viewBox="0 0 26 26" fill="none" xmlns="http://www.w3.org/2000/svg">
<mask id="mask0_456_3069" style="mask-type:luminance" maskUnits="userSpaceOnUse" x="3" y="2" width="21" height="21">
<path d="M23.1177 2.13965H3.11768V22.1396H23.1177V2.13965Z" fill="white"/>
</mask>
<g mask="url(#mask0_456_3069)">
<path d="M9.60554 12.9601C10.9523 12.9601 12.0441 11.8683 12.0441 10.5216C12.0441 9.17478 10.9523 8.08301 9.60554 8.08301C8.25876 8.08301 7.16699 9.17478 7.16699 10.5216C7.16699 11.8683 8.25876 12.9601 9.60554 12.9601Z" fill="#FAC371"/>
<path d="M12.3833 14.3151C11.4296 13.8307 10.377 13.6377 9.60611 13.6377C8.09626 13.6377 5 14.5637 5 16.4149V17.8374H10.0803V17.2931C10.0803 16.6496 10.3512 16.0044 10.8254 15.4666C11.2037 15.0371 11.7334 14.6385 12.3833 14.3151Z" fill="#1000CB"/>
<path d="M15.9734 14.0449C14.2099 14.0449 10.6899 15.1341 10.6899 17.2963V18.922H21.2569V17.2963C21.2569 15.1341 17.7369 14.0449 15.9734 14.0449Z" fill="#1000CB"/>
<path d="M15.9731 12.9608C17.6191 12.9608 18.9535 11.6265 18.9535 9.98042C18.9535 8.33437 17.6191 7 15.9731 7C14.327 7 12.9927 8.33437 12.9927 9.98042C12.9927 11.6265 14.327 12.9608 15.9731 12.9608Z" fill="#FAC371"/>
</g>
</svg>
