<svg width="26" height="26" viewBox="0 0 26 26" fill="none" xmlns="http://www.w3.org/2000/svg">
<g clip-path="url(#clip0_456_3034)">
<path d="M7 19.8319V6.11761C7 5.66295 7.18061 5.22691 7.5021 4.90542C7.82359 4.58393 8.25963 4.40332 8.71429 4.40332H17.2857C17.7404 4.40332 18.1764 4.58393 18.4979 4.90542C18.8194 5.22691 19 5.66295 19 6.11761V19.8319L16.4286 18.1176L14.7143 19.8319L13 18.1176L11.2857 19.8319L9.57143 18.1176L7 19.8319Z" fill="#1000CB" stroke="#1000CB" stroke-width="1.28571" stroke-linecap="round" stroke-linejoin="round"/>
<path d="M13.4469 16.6471L11 12.3748V11.8051H11.2848C11.7423 11.8051 12.1263 11.762 12.4371 11.6757C12.7564 11.5894 13.0067 11.447 13.188 11.2484C13.3692 11.0499 13.4771 10.778 13.5116 10.4328H11V9.60423H13.4987C13.4383 9.28488 13.3174 9.02595 13.1362 8.82744C12.9549 8.62029 12.7089 8.46925 12.3982 8.37431C12.0961 8.27937 11.725 8.2319 11.2848 8.2319H11V7.40332H16.3599V8.2319H13.913C14.1115 8.39589 14.2755 8.59009 14.4049 8.81449C14.5344 9.0389 14.6164 9.30214 14.6509 9.60423H16.3599V10.4328H14.6768C14.6164 11.0629 14.3747 11.5548 13.9518 11.9087C13.5375 12.254 12.9851 12.474 12.2947 12.569L14.7674 16.6471H13.4469Z" fill="#FAC371"/>
</g>
<defs>
<clipPath id="clip0_456_3034">
<rect width="25.18" height="25.18" fill="white" transform="translate(0.481445 0.105469)"/>
</clipPath>
</defs>
</svg>
