<svg width="26" height="26" viewBox="0 0 26 26" fill="none" xmlns="http://www.w3.org/2000/svg">
<g clip-path="url(#clip0_456_3217)">
<mask id="mask0_456_3217" style="mask-type:luminance" maskUnits="userSpaceOnUse" x="0" y="0" width="26" height="26">
<path d="M25.3221 0.106445H0.14209V25.2864H25.3221V0.106445Z" fill="white"/>
</mask>
<g mask="url(#mask0_456_3217)">
<path d="M11.3042 7.57598C11.3042 7.99395 11.4702 8.39481 11.7658 8.69036C12.0614 8.98592 12.4622 9.15195 12.8802 9.15195C13.2981 9.15195 13.699 8.98592 13.9945 8.69036C14.2901 8.39481 14.4562 7.99395 14.4562 7.57598C14.4562 7.158 14.2901 6.75715 13.9945 6.4616C13.699 6.16604 13.2981 6 12.8802 6C12.4622 6 12.0614 6.16604 11.7658 6.4616C11.4702 6.75715 11.3042 7.158 11.3042 7.57598Z" fill="#FAC371" stroke="#1000CB" stroke-width="1.18198" stroke-linecap="round" stroke-linejoin="round"/>
<path d="M8.15186 13.0916C8.15186 13.5096 8.31789 13.9104 8.61345 14.206C8.909 14.5015 9.30986 14.6676 9.72783 14.6676C10.1458 14.6676 10.5467 14.5015 10.8422 14.206C11.1378 13.9104 11.3038 13.5096 11.3038 13.0916C11.3038 12.6737 11.1378 12.2728 10.8422 11.9772C10.5467 11.6817 10.1458 11.5156 9.72783 11.5156C9.30986 11.5156 8.909 11.6817 8.61345 11.9772C8.31789 12.2728 8.15186 12.6737 8.15186 13.0916Z" stroke="#1000CB" stroke-width="1.18198" stroke-linecap="round" stroke-linejoin="round"/>
<path d="M11.3042 18.6082C11.3042 19.0262 11.4702 19.427 11.7658 19.7226C12.0614 20.0182 12.4622 20.1842 12.8802 20.1842C13.2981 20.1842 13.699 20.0182 13.9945 19.7226C14.2901 19.427 14.4562 19.0262 14.4562 18.6082C14.4562 18.1903 14.2901 17.7894 13.9945 17.4938C13.699 17.1983 13.2981 17.0322 12.8802 17.0322C12.4622 17.0322 12.0614 17.1983 11.7658 17.4938C11.4702 17.7894 11.3042 18.1903 11.3042 18.6082Z" stroke="#1000CB" stroke-width="1.18198" stroke-linecap="round" stroke-linejoin="round"/>
<path d="M17.6079 18.6082C17.6079 19.0262 17.7739 19.427 18.0695 19.7226C18.3651 20.0182 18.7659 20.1842 19.1839 20.1842C19.6018 20.1842 20.0027 20.0182 20.2983 19.7226C20.5938 19.427 20.7599 19.0262 20.7599 18.6082C20.7599 18.1903 20.5938 17.7894 20.2983 17.4938C20.0027 17.1983 19.6018 17.0322 19.1839 17.0322C18.7659 17.0322 18.3651 17.1983 18.0695 17.4938C17.7739 17.7894 17.6079 18.1903 17.6079 18.6082Z" stroke="#1000CB" stroke-width="1.18198" stroke-linecap="round" stroke-linejoin="round"/>
<path d="M5 18.6082C5 19.0262 5.16604 19.427 5.4616 19.7226C5.75715 20.0182 6.158 20.1842 6.57598 20.1842C6.99395 20.1842 7.39481 20.0182 7.69036 19.7226C7.98592 19.427 8.15195 19.0262 8.15195 18.6082C8.15195 18.1903 7.98592 17.7894 7.69036 17.4938C7.39481 17.1983 6.99395 17.0322 6.57598 17.0322C6.158 17.0322 5.75715 17.1983 5.4616 17.4938C5.16604 17.7894 5 18.1903 5 18.6082Z" stroke="#1000CB" stroke-width="1.18198" stroke-linecap="round" stroke-linejoin="round"/>
<path d="M14.4556 13.0916C14.4556 13.5096 14.6216 13.9104 14.9172 14.206C15.2127 14.5015 15.6136 14.6676 16.0315 14.6676C16.4495 14.6676 16.8503 14.5015 17.1459 14.206C17.4415 13.9104 17.6075 13.5096 17.6075 13.0916C17.6075 12.6737 17.4415 12.2728 17.1459 11.9772C16.8503 11.6817 16.4495 11.5156 16.0315 11.5156C15.6136 11.5156 15.2127 11.6817 14.9172 11.9772C14.6216 12.2728 14.4556 12.6737 14.4556 13.0916Z" stroke="#1000CB" stroke-width="1.18198" stroke-linecap="round" stroke-linejoin="round"/>
<path d="M7.36377 17.0319L8.93975 14.668" stroke="#1000CB" stroke-width="1.18198" stroke-linecap="round" stroke-linejoin="round"/>
<path d="M10.5161 11.5163L12.0921 9.15234" stroke="#1000CB" stroke-width="1.18198" stroke-linecap="round" stroke-linejoin="round"/>
<path d="M13.668 9.15234L15.2439 11.5163" stroke="#1000CB" stroke-width="1.18198" stroke-linecap="round" stroke-linejoin="round"/>
<path d="M16.8198 14.668L18.3958 17.0319" stroke="#1000CB" stroke-width="1.18198" stroke-linecap="round" stroke-linejoin="round"/>
<path d="M15.2439 14.668L13.668 17.0319" stroke="#1000CB" stroke-width="1.18198" stroke-linecap="round" stroke-linejoin="round"/>
<path d="M10.5161 14.668L12.0921 17.0319" stroke="#1000CB" stroke-width="1.18198" stroke-linecap="round" stroke-linejoin="round"/>
</g>
</g>
<defs>
<clipPath id="clip0_456_3217">
<rect width="25.18" height="25.18" fill="white" transform="translate(0.14209 0.106445)"/>
</clipPath>
</defs>
</svg>
