<svg width="26" height="26" viewBox="0 0 26 26" fill="none" xmlns="http://www.w3.org/2000/svg">
<path d="M17.9424 6.93207H14.6657C14.3365 6.02274 13.4742 5.36426 12.4551 5.36426C11.436 5.36426 10.5737 6.02274 10.2445 6.93207H6.96772C6.10542 6.93207 5.3999 7.63759 5.3999 8.49989V19.4746C5.3999 20.3447 6.10542 21.0424 6.96772 21.0424H17.9424C18.8126 21.0424 19.5103 20.3447 19.5103 19.4746V8.49989C19.5103 7.63759 18.8126 6.93207 17.9424 6.93207ZM12.4551 6.93207C12.8862 6.93207 13.239 7.28483 13.239 7.71598C13.239 8.14713 12.8862 8.49989 12.4551 8.49989C12.0239 8.49989 11.6712 8.14713 11.6712 7.71598C11.6712 7.28483 12.0239 6.93207 12.4551 6.93207ZM15.2301 16.433L14.117 17.5462L12.4551 15.8765L10.7932 17.5462L9.68788 16.433L11.3498 14.7712L9.68788 13.1093L10.7932 12.004L12.4551 13.6658L14.117 12.004L15.2301 13.1093L13.5604 14.7712L15.2301 16.433Z" fill="#1000CB"/>
</svg>
