<svg width="26" height="26" viewBox="0 0 26 26" fill="none" xmlns="http://www.w3.org/2000/svg">
<g clip-path="url(#clip0_456_3089)">
<path d="M12.5141 18.9336H9.26829C8.88569 18.9336 8.51875 18.7816 8.24821 18.5111C7.97767 18.2406 7.82568 17.8736 7.82568 17.491V7.3928C7.82568 7.0102 7.97767 6.64327 8.24821 6.37272C8.51875 6.10218 8.88569 5.9502 9.26829 5.9502H14.3174L16.1207 7.75345L17.9239 9.55671V13.1632L15.219 16.0484L12.5141 18.9336Z" fill="#1000CB"/>
<path d="M14.3174 17.491H19.3665M19.3665 17.491L17.2026 19.6549M19.3665 17.491L17.2682 15.3927M12.5141 18.9336H9.26829C8.88569 18.9336 8.51875 18.7816 8.24821 18.5111C7.97767 18.2406 7.82568 17.8736 7.82568 17.491V7.3928C7.82568 7.0102 7.97767 6.64326 8.24821 6.37272C8.51875 6.10218 8.88569 5.9502 9.26829 5.9502H14.3174L16.1207 7.75345L17.9239 9.55671V13.1632L15.219 16.0484L12.5141 18.9336Z" stroke="#1000CB" stroke-width="1.04917" stroke-linecap="round" stroke-linejoin="round"/>
<path d="M14.1206 6.47461V9.30736C14.1206 9.52996 14.209 9.74345 14.3664 9.90086C14.5238 10.0583 14.7373 10.1467 14.9599 10.1467H17.2681" fill="#FAC371"/>
<path d="M14.1206 6.47461V9.30736C14.1206 9.52996 14.209 9.74345 14.3664 9.90086C14.5238 10.0583 14.7373 10.1467 14.9599 10.1467H17.2681" stroke="#1000CB" stroke-width="1.67867" stroke-linecap="round" stroke-linejoin="round"/>
<path d="M9 12H16" stroke="#FAC371" stroke-linecap="round"/>
<path d="M9 14H14" stroke="#FAC371" stroke-linecap="round"/>
<path d="M9 16H12.5" stroke="#FAC371" stroke-linecap="round"/>
</g>
<defs>
<clipPath id="clip0_456_3089">
<rect width="25.18" height="25.18" fill="white" transform="translate(0.481445 0.704102)"/>
</clipPath>
</defs>
</svg>
