<svg width="26" height="26" viewBox="0 0 26 26" fill="none" xmlns="http://www.w3.org/2000/svg">
<path d="M20.8716 8.40101C20.8716 7.79967 20.6327 7.22295 20.2075 6.79774C19.7823 6.37251 19.2055 6.13363 18.6042 6.13363H18.0374V5.58274C18.0374 5.27771 17.8028 5.01589 17.4978 5.00065C17.4212 4.99697 17.3446 5.00887 17.2727 5.03565C17.2008 5.06244 17.135 5.10355 17.0795 5.15649C17.0239 5.20942 16.9797 5.27308 16.9495 5.3436C16.9193 5.41414 16.9037 5.49006 16.9037 5.56679V6.13363H8.96789V5.58274C8.96789 5.27771 8.73336 5.01589 8.42833 5.00065C8.35169 4.99697 8.2751 5.00887 8.20319 5.03565C8.13129 5.06244 8.06557 5.10355 8.01001 5.15649C7.95446 5.20942 7.91024 5.27308 7.88002 5.3436C7.84979 5.41414 7.83422 5.49006 7.8342 5.56679V6.13363H7.26736C6.66601 6.13363 6.0893 6.37251 5.66409 6.79774C5.23888 7.22295 5 7.79967 5 8.40101V8.82615C5 8.86373 5.01493 8.89977 5.0415 8.92635C5.06808 8.95293 5.10412 8.96785 5.14171 8.96785H20.7299C20.7675 8.96785 20.8035 8.95293 20.8301 8.92635C20.8567 8.89977 20.8716 8.86373 20.8716 8.82615V8.40101Z" fill="#FAC371"/>
<path d="M5 18.6042C5 19.2055 5.23888 19.7823 5.66409 20.2075C6.0893 20.6327 6.66601 20.8716 7.26736 20.8716H18.6042C19.2055 20.8716 19.7823 20.6327 20.2075 20.2075C20.6327 19.7823 20.8716 19.2055 20.8716 18.6042V10.2078C20.8716 10.1797 20.8604 10.1526 20.8404 10.1327C20.8205 10.1128 20.7935 10.1016 20.7653 10.1016H5.10628C5.07808 10.1016 5.05106 10.1128 5.03113 10.1327C5.01119 10.1526 5 10.1797 5 10.2078V18.6042ZM17.1871 11.2352C17.3553 11.2352 17.5197 11.2851 17.6595 11.3786C17.7993 11.472 17.9083 11.6048 17.9726 11.7601C18.037 11.9155 18.0538 12.0865 18.021 12.2514C17.9882 12.4163 17.9072 12.5678 17.7883 12.6867C17.6694 12.8057 17.5179 12.8866 17.353 12.9194C17.1881 12.9522 17.0171 12.9354 16.8617 12.8711C16.7064 12.8067 16.5736 12.6977 16.4801 12.5579C16.3867 12.4181 16.3368 12.2537 16.3368 12.0855C16.3368 11.86 16.4264 11.6437 16.5859 11.4843C16.7453 11.3248 16.9616 11.2352 17.1871 11.2352ZM17.1871 14.0695C17.3553 14.0695 17.5197 14.1193 17.6595 14.2128C17.7993 14.3062 17.9083 14.439 17.9726 14.5943C18.037 14.7497 18.0538 14.9207 18.021 15.0856C17.9882 15.2505 17.9072 15.402 17.7883 15.521C17.6694 15.6399 17.5179 15.7208 17.353 15.7537C17.1881 15.7865 17.0171 15.7696 16.8617 15.7053C16.7064 15.6409 16.5736 15.5319 16.4801 15.3921C16.3867 15.2523 16.3368 15.0879 16.3368 14.9197C16.3368 14.6942 16.4264 14.478 16.5859 14.3185C16.7453 14.159 16.9616 14.0695 17.1871 14.0695ZM14.3529 11.2352C14.5211 11.2352 14.6854 11.2851 14.8253 11.3786C14.9651 11.472 15.0741 11.6048 15.1384 11.7601C15.2028 11.9155 15.2196 12.0865 15.1868 12.2514C15.154 12.4163 15.073 12.5678 14.9541 12.6867C14.8352 12.8057 14.6837 12.8866 14.5188 12.9194C14.3538 12.9522 14.1829 12.9354 14.0275 12.8711C13.8721 12.8067 13.7394 12.6977 13.6459 12.5579C13.5525 12.4181 13.5026 12.2537 13.5026 12.0855C13.5026 11.86 13.5922 11.6437 13.7517 11.4843C13.9111 11.3248 14.1274 11.2352 14.3529 11.2352ZM14.3529 14.0695C14.5211 14.0695 14.6854 14.1193 14.8253 14.2128C14.9651 14.3062 15.0741 14.439 15.1384 14.5943C15.2028 14.7497 15.2196 14.9207 15.1868 15.0856C15.154 15.2505 15.073 15.402 14.9541 15.521C14.8352 15.6399 14.6837 15.7208 14.5188 15.7537C14.3538 15.7865 14.1829 15.7696 14.0275 15.7053C13.8721 15.6409 13.7394 15.5319 13.6459 15.3921C13.5525 15.2523 13.5026 15.0879 13.5026 14.9197C13.5026 14.6942 13.5922 14.478 13.7517 14.3185C13.9111 14.159 14.1274 14.0695 14.3529 14.0695ZM14.3529 16.9037C14.5211 16.9037 14.6854 16.9535 14.8253 17.047C14.9651 17.1404 15.0741 17.2732 15.1384 17.4286C15.2028 17.5839 15.2196 17.7549 15.1868 17.9198C15.154 18.0848 15.073 18.2363 14.9541 18.3552C14.8352 18.4741 14.6837 18.5551 14.5188 18.5879C14.3538 18.6207 14.1829 18.6038 14.0275 18.5395C13.8721 18.4751 13.7394 18.3661 13.6459 18.2263C13.5525 18.0865 13.5026 17.9221 13.5026 17.7539C13.5026 17.5284 13.5922 17.3122 13.7517 17.1527C13.9111 16.9933 14.1274 16.9037 14.3529 16.9037ZM11.5187 14.0695C11.6868 14.0695 11.8512 14.1193 11.9911 14.2128C12.1309 14.3062 12.2399 14.439 12.3042 14.5943C12.3686 14.7497 12.3854 14.9207 12.3526 15.0856C12.3198 15.2505 12.2388 15.402 12.1199 15.521C12.001 15.6399 11.8495 15.7208 11.6846 15.7537C11.5196 15.7865 11.3487 15.7696 11.1933 15.7053C11.0379 15.6409 10.9051 15.5319 10.8117 15.3921C10.7183 15.2523 10.6684 15.0879 10.6684 14.9197C10.6684 14.6942 10.758 14.478 10.9175 14.3185C11.0769 14.159 11.2932 14.0695 11.5187 14.0695ZM11.5187 16.9037C11.6868 16.9037 11.8512 16.9535 11.9911 17.047C12.1309 17.1404 12.2399 17.2732 12.3042 17.4286C12.3686 17.5839 12.3854 17.7549 12.3526 17.9198C12.3198 18.0848 12.2388 18.2363 12.1199 18.3552C12.001 18.4741 11.8495 18.5551 11.6846 18.5879C11.5196 18.6207 11.3487 18.6038 11.1933 18.5395C11.0379 18.4751 10.9051 18.3661 10.8117 18.2263C10.7183 18.0865 10.6684 17.9221 10.6684 17.7539C10.6684 17.5284 10.758 17.3122 10.9175 17.1527C11.0769 16.9933 11.2932 16.9037 11.5187 16.9037ZM8.68447 14.0695C8.85263 14.0695 9.01703 14.1193 9.15686 14.2128C9.29667 14.3062 9.40566 14.439 9.47001 14.5943C9.53436 14.7497 9.5512 14.9207 9.51839 15.0856C9.48559 15.2505 9.4046 15.402 9.2857 15.521C9.16678 15.6399 9.01528 15.7208 8.85034 15.7537C8.68542 15.7865 8.51446 15.7696 8.35909 15.7053C8.20372 15.6409 8.07092 15.5319 7.9775 15.3921C7.88407 15.2523 7.8342 15.0879 7.8342 14.9197C7.8342 14.6942 7.92379 14.478 8.08324 14.3185C8.2427 14.159 8.45896 14.0695 8.68447 14.0695ZM8.68447 16.9037C8.85263 16.9037 9.01703 16.9535 9.15686 17.047C9.29667 17.1404 9.40566 17.2732 9.47001 17.4286C9.53436 17.5839 9.5512 17.7549 9.51839 17.9198C9.48559 18.0848 9.4046 18.2363 9.2857 18.3552C9.16678 18.4741 9.01528 18.5551 8.85034 18.5879C8.68542 18.6207 8.51446 18.6038 8.35909 18.5395C8.20372 18.4751 8.07092 18.3661 7.9775 18.2263C7.88407 18.0865 7.8342 17.9221 7.8342 17.7539C7.8342 17.5284 7.92379 17.3122 8.08324 17.1527C8.2427 16.9933 8.45896 16.9037 8.68447 16.9037Z" fill="#1000CB"/>
</svg>
