<svg width="26" height="26" viewBox="0 0 26 26" fill="none" xmlns="http://www.w3.org/2000/svg">
<path d="M12.929 8.39812C12.6953 8.39812 12.4712 8.30862 12.306 8.1493C12.1408 7.98998 12.048 7.7739 12.048 7.54859C12.048 7.32328 12.1408 7.1072 12.306 6.94788C12.4712 6.78857 12.6953 6.69906 12.929 6.69906C13.1626 6.69906 13.3867 6.78857 13.5519 6.94788C13.7171 7.1072 13.8099 7.32328 13.8099 7.54859C13.8099 7.7739 13.7171 7.98998 13.5519 8.1493C13.3867 8.30862 13.1626 8.39812 12.929 8.39812ZM19.0959 6.69906H15.4134C15.0433 5.71361 14.0742 5 12.929 5C11.7837 5 10.8146 5.71361 10.4445 6.69906H6.76199C6.29468 6.69906 5.84651 6.87807 5.51607 7.19671C5.18564 7.51534 5 7.9475 5 8.39812V20.2916C5 20.7422 5.18564 21.1743 5.51607 21.493C5.84651 21.8116 6.29468 21.9906 6.76199 21.9906H19.0959C19.5632 21.9906 20.0114 21.8116 20.3418 21.493C20.6723 21.1743 20.8579 20.7422 20.8579 20.2916V8.39812C20.8579 7.9475 20.6723 7.51534 20.3418 7.19671C20.0114 6.87807 19.5632 6.69906 19.0959 6.69906Z" fill="#1000CB"/>
<path d="M13.209 12.8495V12.5245H12.884H12.3291H12.0041V12.8495V15.069V15.2506L12.1589 15.3458L13.1285 15.9423C12.8855 16.331 12.744 16.7892 12.744 17.2884C12.744 17.56 12.7867 17.8225 12.8663 18.0683C12.8109 18.0715 12.7551 18.0731 12.6991 18.0731C10.8441 18.0731 9.325 16.554 9.325 14.6991C9.325 12.8441 10.8441 11.325 12.6991 11.325C14.554 11.325 16.0731 12.8441 16.0731 14.6991C16.0731 14.7551 16.0715 14.8109 16.0683 14.8663C15.8225 14.7867 15.56 14.744 15.2884 14.744C14.8301 14.744 14.3995 14.8658 14.0267 15.0797L13.209 14.589V12.8495ZM14.9185 17.2435H15.2435V16.9185V16.1338H15.3333V16.9185V17.2435H15.6583H16.443V17.3333H15.6583H15.3333V17.6583V18.443H15.2435V17.6583V17.3333H14.9185H14.1338V17.2435H14.9185Z" stroke="#FAC371" stroke-width="0.65"/>
</svg>
