<svg width="26" height="21" viewBox="0 0 26 21" fill="none" xmlns="http://www.w3.org/2000/svg">
<g clip-path="url(#clip0_750_7841)">
<path d="M4 4H21.8579V14.7147H21.1882C21.1882 13.1165 19.8846 11.8128 18.2863 11.8128C17.1166 11.8128 16.1255 12.5182 15.6612 13.5183C15.438 13.429 15.1969 13.3754 14.938 13.3754C14.0629 13.3754 13.3308 13.9379 13.054 14.7147H4V4ZM11.4735 6.77691C11.42 6.91084 11.3842 7.0537 11.3753 7.19657C11.3664 7.33943 11.3664 7.49122 11.3842 7.64301L11.4021 7.71445C11.411 7.76802 11.42 7.83945 11.4467 7.91981C11.4646 8.0091 11.5003 8.09839 11.536 8.19661C11.5628 8.29483 11.6164 8.39305 11.67 8.49126C11.7325 8.59841 11.8039 8.6877 11.8753 8.76806C11.9468 8.84842 12.0361 8.91985 12.1521 8.97343C12.2593 9.027 12.3754 9.05379 12.5093 9.05379C12.6343 9.05379 12.7504 9.027 12.8575 8.97343C12.9647 8.91985 13.054 8.84842 13.1254 8.77699C13.2058 8.69663 13.2683 8.59841 13.3218 8.49126C13.3843 8.38412 13.429 8.2859 13.4647 8.19661C13.5004 8.10732 13.5272 8.01803 13.5451 7.91981C13.5718 7.82159 13.5808 7.75909 13.5897 7.72337C13.5986 7.68766 13.5986 7.66087 13.5986 7.64301C13.6433 7.38407 13.6254 7.14299 13.5629 6.91084C13.5004 6.67869 13.3754 6.48225 13.1968 6.32153C13.0093 6.16081 12.7772 6.08045 12.4914 6.08045C12.3218 6.08045 12.17 6.10723 12.0271 6.16974C11.8932 6.23224 11.7771 6.3126 11.6878 6.41975C11.6075 6.51797 11.536 6.64297 11.4735 6.77691ZM15.4737 12.17V11.1521C15.4737 10.8574 15.3844 10.5628 15.2148 10.2771C15.0451 9.99133 14.813 9.75025 14.5272 9.57167C14.2415 9.38416 13.9379 9.29487 13.6165 9.29487L12.5093 10.0449L11.3664 9.31273C11.036 9.31273 10.7235 9.40202 10.4378 9.5806C10.161 9.75918 9.93776 9.99133 9.77703 10.2681C9.61631 10.5539 9.53595 10.8485 9.53595 11.1521V12.17L9.69667 12.2146C9.80382 12.2504 9.95561 12.2861 10.1521 12.3396C10.3574 12.3843 10.5717 12.4289 10.8128 12.4736C11.0449 12.5182 11.3217 12.5539 11.6253 12.5897C11.9289 12.6164 12.2236 12.6343 12.5093 12.6343C12.7772 12.6343 13.0718 12.6164 13.3843 12.5897C13.6879 12.5539 13.9558 12.5182 14.179 12.4736C14.4022 12.4379 14.6255 12.3843 14.8576 12.3307L15.3041 12.2236C15.3755 12.2057 15.4291 12.1879 15.4737 12.17ZM18.2863 12.2593C19.6435 12.2593 20.7418 13.3575 20.7418 14.7147C20.7418 16.0719 19.6435 17.1702 18.2863 17.1702C17.6345 17.1702 17.0541 16.9023 16.6166 16.4827C16.822 16.1702 16.947 15.7862 16.947 15.3844C16.947 14.6969 16.5988 14.0808 16.063 13.7236C16.447 12.8665 17.2863 12.2593 18.2863 12.2593ZM13.3754 15.3844C13.3754 14.5272 14.0808 13.8219 14.938 13.8219C15.7952 13.8219 16.5005 14.5272 16.5005 15.3844C16.5005 16.2416 15.7952 16.947 14.938 16.947C14.0808 16.947 13.3754 16.2416 13.3754 15.3844Z" fill="#FAC371"/>
<path d="M4 4H21.8579V14.7147H21.1882C21.1882 13.1165 19.8846 11.8128 18.2863 11.8128C17.1166 11.8128 16.1255 12.5182 15.6612 13.5183C15.438 13.429 15.1969 13.3754 14.938 13.3754C14.0629 13.3754 13.3308 13.9379 13.054 14.7147H4V4ZM11.4735 6.77691C11.42 6.91084 11.3842 7.0537 11.3753 7.19657C11.3664 7.33943 11.3664 7.49122 11.3842 7.64301L11.4021 7.71445C11.411 7.76802 11.42 7.83945 11.4467 7.91981C11.4646 8.0091 11.5003 8.09839 11.536 8.19661C11.5628 8.29483 11.6164 8.39305 11.67 8.49126C11.7325 8.59841 11.8039 8.6877 11.8753 8.76806C11.9468 8.84842 12.0361 8.91985 12.1521 8.97343C12.2593 9.027 12.3754 9.05379 12.5093 9.05379C12.6343 9.05379 12.7504 9.027 12.8575 8.97343C12.9647 8.91985 13.054 8.84842 13.1254 8.77699C13.2058 8.69663 13.2683 8.59841 13.3218 8.49126C13.3843 8.38412 13.429 8.2859 13.4647 8.19661C13.5004 8.10732 13.5272 8.01803 13.5451 7.91981C13.5718 7.82159 13.5808 7.75909 13.5897 7.72337C13.5986 7.68766 13.5986 7.66087 13.5986 7.64301C13.6433 7.38407 13.6254 7.14299 13.5629 6.91084C13.5004 6.67869 13.3754 6.48225 13.1968 6.32153C13.0093 6.16081 12.7772 6.08045 12.4914 6.08045C12.3218 6.08045 12.17 6.10723 12.0271 6.16974C11.8932 6.23224 11.7771 6.3126 11.6878 6.41975C11.6075 6.51797 11.536 6.64297 11.4735 6.77691ZM15.4737 12.17V11.1521C15.4737 10.8574 15.3844 10.5628 15.2148 10.2771C15.0451 9.99133 14.813 9.75025 14.5272 9.57167C14.2415 9.38416 13.9379 9.29487 13.6165 9.29487L12.5093 10.0449L11.3664 9.31273C11.036 9.31273 10.7235 9.40202 10.4378 9.5806C10.161 9.75918 9.93776 9.99133 9.77703 10.2681C9.61631 10.5539 9.53595 10.8485 9.53595 11.1521V12.17L9.69667 12.2146C9.80382 12.2504 9.95561 12.2861 10.1521 12.3396C10.3574 12.3843 10.5717 12.4289 10.8128 12.4736C11.0449 12.5182 11.3217 12.5539 11.6253 12.5897C11.9289 12.6164 12.2236 12.6343 12.5093 12.6343C12.7772 12.6343 13.0718 12.6164 13.3843 12.5897C13.6879 12.5539 13.9558 12.5182 14.179 12.4736C14.4022 12.4379 14.6255 12.3843 14.8576 12.3307L15.3041 12.2236C15.3755 12.2057 15.4291 12.1879 15.4737 12.17Z" fill="#1000CB"/>
</g>
<defs>
<clipPath id="clip0_750_7841">
<rect width="25.18" height="20.14" fill="white" transform="translate(0.14209 0.537109)"/>
</clipPath>
</defs>
</svg>
