<svg width="26" height="26" viewBox="0 0 26 26" fill="none" xmlns="http://www.w3.org/2000/svg">
<path d="M8.91032 10.8242H6.83659C6.07622 10.8242 5.4541 10.2021 5.4541 9.44173V8.05924C5.4541 7.29888 6.07622 6.67676 6.83659 6.67676H8.91032C9.67069 6.67676 10.2928 7.29888 10.2928 8.05924V9.44173C10.2928 10.2021 9.67069 10.8242 8.91032 10.8242Z" fill="#FAC371"/>
<path d="M18.4498 10.1331H15.9613C15.5051 10.1331 15.1318 9.75987 15.1318 9.30365V8.19766C15.1318 7.74144 15.5051 7.36816 15.9613 7.36816H18.4498C18.906 7.36816 19.2793 7.74144 19.2793 8.19766V9.30365C19.2793 9.75987 18.906 10.1331 18.4498 10.1331Z" fill="#1000CB"/>
<path d="M18.4498 15.3167H15.9613C15.5051 15.3167 15.1318 14.9435 15.1318 14.4872V13.3812C15.1318 12.925 15.5051 12.5518 15.9613 12.5518H18.4498C18.906 12.5518 19.2793 12.925 19.2793 13.3812V14.4872C19.2793 14.9435 18.906 15.3167 18.4498 15.3167Z" fill="#1000CB"/>
<path opacity="0.96" d="M15.1316 14.4526C15.415 14.4526 15.65 14.2176 15.65 13.9342C15.65 13.6508 15.415 13.4158 15.1316 13.4158H13.2306V9.26831H15.1316C15.415 9.26831 15.65 9.03329 15.65 8.74988C15.65 8.46647 15.415 8.23145 15.1316 8.23145H10.2928C10.0094 8.23145 9.77441 8.46647 9.77441 8.74988C9.77441 9.03329 10.0094 9.26831 10.2928 9.26831H12.1938V17.736C12.1938 18.7867 13.044 19.637 14.0947 19.637H15.1316C15.415 19.637 15.65 19.4019 15.65 19.1185C15.65 18.8351 15.415 18.6001 15.1316 18.6001H14.0947C13.6177 18.6001 13.2306 18.213 13.2306 17.736V14.4526H15.1316Z" fill="#1000CB"/>
<path d="M18.4498 20.5013H15.9613C15.5051 20.5013 15.1318 20.128 15.1318 19.6718V18.5658C15.1318 18.1096 15.5051 17.7363 15.9613 17.7363H18.4498C18.906 17.7363 19.2793 18.1096 19.2793 18.5658V19.6718C19.2793 20.128 18.906 20.5013 18.4498 20.5013Z" fill="#1000CB"/>
</svg>
