<svg width="26" height="21" viewBox="0 0 26 21" fill="none" xmlns="http://www.w3.org/2000/svg">
<path d="M16.4164 11.8236C16.1738 12.0603 16.0353 12.401 16.0699 12.7648C16.1219 13.3884 16.6935 13.8445 17.3171 13.8445H18.4142V14.5317C18.4142 15.7269 17.4384 16.7027 16.2431 16.7027H10.4055C10.5845 16.5526 10.7404 16.3678 10.8616 16.16C11.0753 15.8135 11.1965 15.4036 11.1965 14.9705C11.1965 13.6944 10.163 12.6609 8.88689 12.6609C8.34412 12.6609 7.84177 12.8514 7.44336 13.169V10.6457C7.44336 9.45044 8.41918 8.47461 9.61443 8.47461H16.2431C17.4384 8.47461 18.4142 9.45044 18.4142 10.6457V11.4772H17.2478C16.9245 11.4772 16.63 11.6042 16.4164 11.8236Z" stroke="#1000CB" stroke-width="0.8" stroke-linecap="round" stroke-linejoin="round"/>
<path d="M7.44336 11.1652V8.52645C7.44336 7.83933 7.86487 7.22725 8.5058 6.98474L13.0905 5.2525C13.8064 4.98111 14.5744 5.51235 14.5744 6.28031V8.47447" stroke="#1000CB" stroke-width="0.8" stroke-linecap="round" stroke-linejoin="round"/>
<path d="M19.0256 12.0655V13.255C19.0256 13.5726 18.7715 13.8324 18.4482 13.8439H17.3164C16.6928 13.8439 16.1212 13.3878 16.0692 12.7642C16.0346 12.4004 16.1732 12.0597 16.4157 11.823C16.6293 11.6036 16.9238 11.4766 17.2472 11.4766H18.4482C18.7715 11.4881 19.0256 11.7479 19.0256 12.0655Z" stroke="#1000CB" stroke-width="0.7" stroke-linecap="round" stroke-linejoin="round"/>
<path d="M10.042 10.9287H14.0839" stroke="#FAC371" stroke-width="0.7" stroke-linecap="round" stroke-linejoin="round"/>
<path d="M11.1969 14.9708C11.1969 15.4038 11.0757 15.8138 10.862 16.1603C10.7408 16.3681 10.5849 16.5529 10.4059 16.703C10.0017 17.0668 9.47048 17.2804 8.88729 17.2804C8.04427 17.2804 7.31095 16.8301 6.91254 16.1603C6.69889 15.8138 6.57764 15.4038 6.57764 14.9708C6.57764 14.2432 6.91254 13.5908 7.44376 13.1693C7.84217 12.8517 8.34452 12.6611 8.88729 12.6611C10.1634 12.6611 11.1969 13.6947 11.1969 14.9708Z" fill="#1000CB" stroke="#1000CB" stroke-width="0.7" stroke-miterlimit="10" stroke-linecap="round" stroke-linejoin="round"/>
<path d="M7.9873 14.9702L8.55894 15.5418L9.78883 14.4043" stroke="#FAC371" stroke-width="0.7" stroke-linecap="round" stroke-linejoin="round"/>
</svg>
