<svg width="26" height="26" viewBox="0 0 26 26" fill="none" xmlns="http://www.w3.org/2000/svg">
<path d="M16.9912 8.19835H15.1146V6.94732C15.1146 6.25738 14.5536 5.69629 13.8636 5.69629H10.1105C9.42059 5.69629 8.8595 6.25738 8.8595 6.94732V8.19835H6.98296C6.29302 8.19835 5.73193 8.75943 5.73193 9.44937V11.3259H18.2422V9.44937C18.2422 8.75943 17.6811 8.19835 16.9912 8.19835ZM10.1105 6.94732H13.8636V8.19835H10.1105V6.94732ZM13.2381 13.2025H10.736V11.9514H5.73193V16.33C5.73193 17.02 6.29302 17.5811 6.98296 17.5811H16.9912C17.6811 17.5811 18.2422 17.02 18.2422 16.33V11.9514H13.2381V13.2025Z" fill="#1000CB"/>
<path d="M16.3344 15.9131C15.0123 15.9131 13.9366 16.9887 13.9366 18.3109C13.9366 19.633 15.0123 20.7087 16.3344 20.7087C17.6566 20.7087 18.7322 19.633 18.7322 18.3109C18.7322 16.9887 17.6566 15.9131 16.3344 15.9131ZM17.7131 18.5507H16.0946V16.8722H16.5742V18.0711H17.7131V18.5507Z" fill="#FAC371"/>
</svg>
