<svg width="26" height="26" viewBox="0 0 26 26" fill="none" xmlns="http://www.w3.org/2000/svg">
<path d="M14.8828 19.6953V19.9806L15.1284 20.1258L16.8354 21.1344L16.7981 21.1951L14.7578 19.9743V17.0078H14.8828V19.6953ZM11.691 22.9014L11.5451 22.7578H11.3403H6.75781C6.20732 22.7578 5.75781 22.3125 5.75781 21.7578V11.2578C5.75781 10.709 6.20895 10.2578 6.75781 10.2578H9.89281H10.2435L10.3629 9.92803C10.6106 9.24415 11.2556 8.75781 12.0078 8.75781C12.76 8.75781 13.4051 9.24415 13.6527 9.92803L13.7721 10.2578H14.1228H17.2578C17.8125 10.2578 18.2578 10.7073 18.2578 11.2578V15.8403V16.0451L18.4014 16.191C19.2429 17.046 19.7578 18.2114 19.7578 19.5078C19.7578 22.1342 17.6342 24.2578 15.0078 24.2578C13.7114 24.2578 12.546 23.7429 11.691 22.9014ZM10.7578 10.5078C10.7578 11.1965 11.3192 11.7578 12.0078 11.7578C12.6965 11.7578 13.2578 11.1965 13.2578 10.5078C13.2578 9.81917 12.6965 9.25781 12.0078 9.25781C11.3192 9.25781 10.7578 9.81917 10.7578 10.5078ZM19.2578 19.5078C19.2578 17.1617 17.354 15.2578 15.0078 15.2578C12.6617 15.2578 10.7578 17.1617 10.7578 19.5078C10.7578 21.854 12.6617 23.7578 15.0078 23.7578C17.354 23.7578 19.2578 21.854 19.2578 19.5078Z" fill="#FAC371" stroke="#1000CB"/>
</svg>
